<svg width="512" height="512" viewBox="0 0 512 512" fill="none" xmlns="http://www.w3.org/2000/svg">
<path fill-rule="evenodd" clip-rule="evenodd" d="M128 256C128 289.948 141.486 322.505 165.49 346.51C189.495 370.514 222.052 384 256 384C289.948 384 322.505 370.514 346.51 346.51C370.514 322.505 384 289.948 384 256C384 222.052 370.514 189.495 346.51 165.49C322.505 141.486 289.948 128 256 128C222.052 128 189.495 141.486 165.49 165.49C141.486 189.495 128 222.052 128 256ZM176 256C176 234.783 184.429 214.434 199.431 199.431C214.434 184.429 234.783 176 256 176C277.217 176 297.566 184.429 312.569 199.431C327.571 214.434 336 234.783 336 256C336 277.217 327.571 297.566 312.569 312.569C297.566 327.571 277.217 336 256 336C234.783 336 214.434 327.571 199.431 312.569C184.429 297.566 176 277.217 176 256Z" fill="#548ED2"/>
<path fill-rule="evenodd" clip-rule="evenodd" d="M32 256C32 315.409 55.5999 372.384 97.6081 414.392C139.616 456.4 196.592 480 256 480C315.409 480 372.384 456.4 414.392 414.392C456.4 372.384 480 315.409 480 256C480 196.592 456.4 139.616 414.392 97.6081C372.384 55.5999 315.409 32 256 32C196.592 32 139.616 55.5999 97.6081 97.6081C55.5999 139.616 32 196.592 32 256ZM80 256C80 209.322 98.5428 164.556 131.549 131.549C164.556 98.5428 209.322 80 256 80C302.678 80 347.444 98.5428 380.451 131.549C413.457 164.556 432 209.322 432 256C432 302.678 413.457 347.444 380.451 380.451C347.444 413.457 302.678 432 256 432C209.322 432 164.556 413.457 131.549 380.451C98.5428 347.444 80 302.678 80 256Z" fill="#2A5990"/>
<path fill-rule="evenodd" clip-rule="evenodd" d="M224 256C224 264.487 227.371 272.626 233.373 278.627C239.374 284.629 247.513 288 256 288C264.487 288 272.626 284.629 278.627 278.627C284.629 272.626 288 264.487 288 256C288 247.513 284.629 239.374 278.627 233.373C272.626 227.371 264.487 224 256 224C247.513 224 239.374 227.371 233.373 233.373C227.371 239.374 224 247.513 224 256Z" fill="#255082"/>
</svg>
